<svg width="147" height="20" viewBox="0 0 147 20" fill="none" xmlns="http://www.w3.org/2000/svg">
<path d="M14.1667 6.6665H15C15.8841 6.6665 16.7319 7.01769 17.357 7.64281C17.9821 8.26794 18.3333 9.11578 18.3333 9.99984C18.3333 10.8839 17.9821 11.7317 17.357 12.3569C16.7319 12.982 15.8841 13.3332 15 13.3332H14.1667M14.1667 6.6665H2.5V14.1665C2.5 15.0506 2.85119 15.8984 3.47631 16.5235C4.10143 17.1486 4.94928 17.4998 5.83333 17.4998H10.8333C11.7174 17.4998 12.5652 17.1486 13.1904 16.5235C13.8155 15.8984 14.1667 15.0506 14.1667 14.1665V6.6665ZM5 1.6665V3.33317M8.33333 1.6665V3.33317M11.6667 1.6665V3.33317" stroke="#09090B" stroke-width="2" stroke-linecap="round" stroke-linejoin="round"/>
<path d="M29.0114 16V4.36364H33.6705C34.5265 4.36364 35.2405 4.49053 35.8125 4.74432C36.3845 4.99811 36.8144 5.35038 37.1023 5.80114C37.3902 6.24811 37.5341 6.76326 37.5341 7.34659C37.5341 7.80114 37.4432 8.20076 37.2614 8.54545C37.0795 8.88636 36.8295 9.16667 36.5114 9.38636C36.197 9.60227 35.8371 9.75568 35.4318 9.84659V9.96023C35.875 9.97917 36.2898 10.1042 36.6761 10.3352C37.0663 10.5663 37.3826 10.8902 37.625 11.3068C37.8674 11.7197 37.9886 12.2121 37.9886 12.7841C37.9886 13.4015 37.8352 13.9527 37.5284 14.4375C37.2254 14.9186 36.7765 15.2992 36.1818 15.5795C35.5871 15.8598 34.8542 16 33.983 16H29.0114ZM31.4716 13.9886H33.4773C34.1629 13.9886 34.6629 13.858 34.9773 13.5966C35.2917 13.3314 35.4489 12.9792 35.4489 12.5398C35.4489 12.2178 35.3712 11.9337 35.2159 11.6875C35.0606 11.4413 34.839 11.2481 34.5511 11.108C34.267 10.9678 33.928 10.8977 33.5341 10.8977H31.4716V13.9886ZM31.4716 9.23295H33.2955C33.6326 9.23295 33.9318 9.17424 34.1932 9.05682C34.4583 8.93561 34.6667 8.76515 34.8182 8.54545C34.9735 8.32576 35.0511 8.0625 35.0511 7.75568C35.0511 7.33523 34.9015 6.99621 34.6023 6.73864C34.3068 6.48106 33.8864 6.35227 33.3409 6.35227H31.4716V9.23295ZM45.4606 12.2841V7.27273H47.8811V16H45.5572V14.4148H45.4663C45.2693 14.9261 44.9417 15.3371 44.4834 15.6477C44.0288 15.9583 43.4739 16.1136 42.8186 16.1136C42.2352 16.1136 41.722 15.9811 41.2788 15.7159C40.8356 15.4508 40.489 15.0739 40.239 14.5852C39.9928 14.0966 39.8678 13.5114 39.864 12.8295V7.27273H42.2845V12.3977C42.2883 12.9129 42.4265 13.3201 42.6993 13.6193C42.972 13.9186 43.3375 14.0682 43.7959 14.0682C44.0875 14.0682 44.3602 14.0019 44.614 13.8693C44.8678 13.733 45.0724 13.5322 45.2277 13.267C45.3868 13.0019 45.4644 12.6742 45.4606 12.2841ZM51.6315 19.2727C51.3247 19.2727 51.0368 19.2481 50.7678 19.1989C50.5027 19.1534 50.283 19.0947 50.1087 19.0227L50.6542 17.2159C50.9383 17.303 51.194 17.3504 51.4212 17.358C51.6523 17.3655 51.8512 17.3125 52.0178 17.1989C52.1883 17.0852 52.3266 16.892 52.4326 16.6193L52.5747 16.25L49.444 7.27273H51.9894L53.7962 13.6818H53.8872L55.711 7.27273H58.2735L54.8815 16.9432C54.7186 17.4129 54.497 17.822 54.2167 18.1705C53.9402 18.5227 53.5898 18.7936 53.1656 18.983C52.7413 19.1761 52.23 19.2727 51.6315 19.2727ZM63.9007 4.36364H66.9348L70.1394 12.1818H70.2757L73.4803 4.36364H76.5144V16H74.128V8.42614H74.0314L71.0201 15.9432H69.3951L66.3837 8.39773H66.2871V16H63.9007V4.36364ZM82.7932 16.1705C81.8955 16.1705 81.1227 15.9886 80.475 15.625C79.8311 15.2576 79.3348 14.7386 78.9864 14.0682C78.6379 13.3939 78.4636 12.5966 78.4636 11.6761C78.4636 10.7784 78.6379 9.99053 78.9864 9.3125C79.3348 8.63447 79.8254 8.10606 80.458 7.72727C81.0943 7.34848 81.8405 7.15909 82.6966 7.15909C83.2723 7.15909 83.8083 7.25189 84.3045 7.4375C84.8045 7.61932 85.2402 7.89394 85.6114 8.26136C85.9864 8.62879 86.278 9.09091 86.4864 9.64773C86.6947 10.2008 86.7989 10.8485 86.7989 11.5909V12.2557H79.4295V10.7557H84.5205C84.5205 10.4072 84.4447 10.0985 84.2932 9.82955C84.1417 9.56061 83.9314 9.35038 83.6625 9.19886C83.3973 9.04356 83.0886 8.96591 82.7364 8.96591C82.3689 8.96591 82.0432 9.05114 81.7591 9.22159C81.4788 9.38826 81.2591 9.61364 81.1 9.89773C80.9409 10.178 80.8595 10.4905 80.8557 10.8352V12.2614C80.8557 12.6932 80.9352 13.0663 81.0943 13.3807C81.2572 13.6951 81.4864 13.9375 81.7818 14.108C82.0773 14.2784 82.4276 14.3636 82.833 14.3636C83.1019 14.3636 83.3481 14.3258 83.5716 14.25C83.7951 14.1742 83.9864 14.0606 84.1455 13.9091C84.3045 13.7576 84.4258 13.572 84.5091 13.3523L86.7477 13.5C86.6341 14.0379 86.4011 14.5076 86.0489 14.9091C85.7004 15.3068 85.2496 15.6174 84.6966 15.8409C84.1473 16.0606 83.5129 16.1705 82.7932 16.1705ZM103.034 8.4375H100.545C100.5 8.11553 100.407 7.82955 100.267 7.57955C100.127 7.32576 99.9469 7.10985 99.7272 6.93182C99.5075 6.75379 99.2537 6.61742 98.9659 6.52273C98.6818 6.42803 98.3731 6.38068 98.0397 6.38068C97.4374 6.38068 96.9128 6.5303 96.4659 6.82955C96.0189 7.125 95.6723 7.55682 95.4261 8.125C95.1799 8.68939 95.0568 9.375 95.0568 10.1818C95.0568 11.0114 95.1799 11.7083 95.4261 12.2727C95.6761 12.8371 96.0246 13.2633 96.4715 13.5511C96.9185 13.839 97.4356 13.983 98.0227 13.983C98.3522 13.983 98.6571 13.9394 98.9374 13.8523C99.2215 13.7652 99.4734 13.6383 99.6931 13.4716C99.9128 13.3011 100.095 13.0947 100.239 12.8523C100.386 12.6098 100.489 12.3333 100.545 12.0227L103.034 12.0341C102.97 12.5682 102.809 13.0833 102.551 13.5795C102.297 14.072 101.954 14.5133 101.523 14.9034C101.095 15.2898 100.583 15.5966 99.9886 15.8239C99.3977 16.0473 98.7291 16.1591 97.9829 16.1591C96.945 16.1591 96.017 15.9242 95.1988 15.4545C94.3844 14.9848 93.7405 14.3049 93.267 13.4148C92.7973 12.5246 92.5624 11.447 92.5624 10.1818C92.5624 8.91288 92.8011 7.83333 93.2784 6.94318C93.7556 6.05303 94.4034 5.375 95.2215 4.90909C96.0397 4.43939 96.9602 4.20455 97.9829 4.20455C98.6571 4.20455 99.2821 4.29924 99.8579 4.48864C100.437 4.67803 100.951 4.95455 101.398 5.31818C101.845 5.67803 102.208 6.11932 102.489 6.64205C102.773 7.16477 102.954 7.76326 103.034 8.4375ZM109.016 16.1705C108.133 16.1705 107.37 15.983 106.726 15.608C106.086 15.2292 105.592 14.7027 105.243 14.0284C104.895 13.3504 104.721 12.5644 104.721 11.6705C104.721 10.7689 104.895 9.98106 105.243 9.30682C105.592 8.62879 106.086 8.10227 106.726 7.72727C107.37 7.34848 108.133 7.15909 109.016 7.15909C109.899 7.15909 110.66 7.34848 111.3 7.72727C111.944 8.10227 112.44 8.62879 112.789 9.30682C113.137 9.98106 113.311 10.7689 113.311 11.6705C113.311 12.5644 113.137 13.3504 112.789 14.0284C112.44 14.7027 111.944 15.2292 111.3 15.608C110.66 15.983 109.899 16.1705 109.016 16.1705ZM109.027 14.2955C109.429 14.2955 109.764 14.1818 110.033 13.9545C110.302 13.7235 110.505 13.4091 110.641 13.0114C110.781 12.6136 110.851 12.161 110.851 11.6534C110.851 11.1458 110.781 10.6932 110.641 10.2955C110.505 9.89773 110.302 9.58333 110.033 9.35227C109.764 9.12121 109.429 9.00568 109.027 9.00568C108.622 9.00568 108.281 9.12121 108.005 9.35227C107.732 9.58333 107.525 9.89773 107.385 10.2955C107.249 10.6932 107.181 11.1458 107.181 11.6534C107.181 12.161 107.249 12.6136 107.385 13.0114C107.525 13.4091 107.732 13.7235 108.005 13.9545C108.281 14.1818 108.622 14.2955 109.027 14.2955ZM119.898 7.27273V9.09091H114.512V7.27273H119.898ZM115.745 16V6.64205C115.745 6.00947 115.868 5.48485 116.114 5.06818C116.364 4.65151 116.705 4.33901 117.137 4.13068C117.569 3.92235 118.059 3.81818 118.609 3.81818C118.98 3.81818 119.319 3.84659 119.626 3.90341C119.936 3.96023 120.167 4.01136 120.319 4.05682L119.887 5.875C119.792 5.8447 119.675 5.81629 119.535 5.78977C119.398 5.76326 119.258 5.75 119.114 5.75C118.758 5.75 118.51 5.83333 118.37 6C118.23 6.16288 118.16 6.39205 118.16 6.6875V16H115.745ZM126.39 7.27273V9.09091H121.004V7.27273H126.39ZM122.237 16V6.64205C122.237 6.00947 122.36 5.48485 122.606 5.06818C122.856 4.65151 123.197 4.33901 123.629 4.13068C124.061 3.92235 124.551 3.81818 125.101 3.81818C125.472 3.81818 125.811 3.84659 126.118 3.90341C126.428 3.96023 126.659 4.01136 126.811 4.05682L126.379 5.875C126.284 5.8447 126.167 5.81629 126.027 5.78977C125.89 5.76326 125.75 5.75 125.606 5.75C125.25 5.75 125.002 5.83333 124.862 6C124.722 6.16288 124.652 6.39205 124.652 6.6875V16H122.237ZM131.854 16.1705C130.956 16.1705 130.183 15.9886 129.536 15.625C128.892 15.2576 128.395 14.7386 128.047 14.0682C127.699 13.3939 127.524 12.5966 127.524 11.6761C127.524 10.7784 127.699 9.99053 128.047 9.3125C128.395 8.63447 128.886 8.10606 129.519 7.72727C130.155 7.34848 130.901 7.15909 131.757 7.15909C132.333 7.15909 132.869 7.25189 133.365 7.4375C133.865 7.61932 134.301 7.89394 134.672 8.26136C135.047 8.62879 135.339 9.09091 135.547 9.64773C135.755 10.2008 135.859 10.8485 135.859 11.5909V12.2557H128.49V10.7557H133.581C133.581 10.4072 133.505 10.0985 133.354 9.82955C133.202 9.56061 132.992 9.35038 132.723 9.19886C132.458 9.04356 132.149 8.96591 131.797 8.96591C131.43 8.96591 131.104 9.05114 130.82 9.22159C130.539 9.38826 130.32 9.61364 130.161 9.89773C130.002 10.178 129.92 10.4905 129.916 10.8352V12.2614C129.916 12.6932 129.996 13.0663 130.155 13.3807C130.318 13.6951 130.547 13.9375 130.842 14.108C131.138 14.2784 131.488 14.3636 131.894 14.3636C132.163 14.3636 132.409 14.3258 132.632 14.25C132.856 14.1742 133.047 14.0606 133.206 13.9091C133.365 13.7576 133.486 13.572 133.57 13.3523L135.808 13.5C135.695 14.0379 135.462 14.5076 135.109 14.9091C134.761 15.3068 134.31 15.6174 133.757 15.8409C133.208 16.0606 132.574 16.1705 131.854 16.1705ZM141.736 16.1705C140.839 16.1705 140.066 15.9886 139.418 15.625C138.774 15.2576 138.278 14.7386 137.929 14.0682C137.581 13.3939 137.407 12.5966 137.407 11.6761C137.407 10.7784 137.581 9.99053 137.929 9.3125C138.278 8.63447 138.769 8.10606 139.401 7.72727C140.037 7.34848 140.784 7.15909 141.64 7.15909C142.215 7.15909 142.751 7.25189 143.248 7.4375C143.748 7.61932 144.183 7.89394 144.554 8.26136C144.929 8.62879 145.221 9.09091 145.429 9.64773C145.638 10.2008 145.742 10.8485 145.742 11.5909V12.2557H138.373V10.7557H143.464C143.464 10.4072 143.388 10.0985 143.236 9.82955C143.085 9.56061 142.875 9.35038 142.606 9.19886C142.34 9.04356 142.032 8.96591 141.679 8.96591C141.312 8.96591 140.986 9.05114 140.702 9.22159C140.422 9.38826 140.202 9.61364 140.043 9.89773C139.884 10.178 139.803 10.4905 139.799 10.8352V12.2614C139.799 12.6932 139.878 13.0663 140.037 13.3807C140.2 13.6951 140.429 13.9375 140.725 14.108C141.02 14.2784 141.371 14.3636 141.776 14.3636C142.045 14.3636 142.291 14.3258 142.515 14.25C142.738 14.1742 142.929 14.0606 143.089 13.9091C143.248 13.7576 143.369 13.572 143.452 13.3523L145.691 13.5C145.577 14.0379 145.344 14.5076 144.992 14.9091C144.644 15.3068 144.193 15.6174 143.64 15.8409C143.09 16.0606 142.456 16.1705 141.736 16.1705Z" fill="#09090B"/>
</svg>
